<?xml version="1.0" encoding="UTF-8"?>
<svg xmlns="http://www.w3.org/2000/svg" xmlns:xlink="http://www.w3.org/1999/xlink" version="1.1" viewBox="0 0 332.4 247.8">
  <!-- Generator: Adobe Illustrator 29.1.0, SVG Export Plug-In . SVG Version: 2.1.0 Build 142)  -->
  <defs>
    <style>
      .st0 {
        fill: url(#linear-gradient);
      }

      .st1 {
        fill: #ff8f00;
      }

      .st2, .st3 {
        fill: #f93;
      }

      .st3 {
        stroke: #000;
        stroke-width: 15px;
      }

      .st4 {
        fill: #ffeddf;
      }
    </style>
    <linearGradient id="linear-gradient" x1="60.8" y1="317.1" x2="436.9" y2="29.6" gradientUnits="userSpaceOnUse">
      <stop offset="0" stop-color="#fff"/>
      <stop offset="0" stop-color="#e7e7e7"/>
      <stop offset="0" stop-color="#bdbdbd"/>
      <stop offset="0" stop-color="#999"/>
      <stop offset=".1" stop-color="#7c7c7c"/>
      <stop offset=".1" stop-color="#666"/>
      <stop offset=".2" stop-color="#565656"/>
      <stop offset=".2" stop-color="#4c4c4c"/>
      <stop offset=".3" stop-color="#4a4a4a"/>
      <stop offset=".8" stop-color="#4a4a4a"/>
    </linearGradient>
  </defs>
  <g id="Layer_1">
    <rect class="st4" x="100" y=".5" width="232.4" height="232.4"/>
    <g>
      <path class="st1" d="M117.1,9.6c-2.2,0-4.2.9-5.6,2.4-1.5,1.4-2.4,3.4-2.4,5.6,0,4.3,3.5,7.9,7.9,7.9s4.2-.9,5.6-2.4c1.5-1.4,2.4-3.4,2.4-5.6,0-4.3-3.5-7.9-7.9-7.9Z"/>
      <path class="st1" d="M142.2,34.7c-2.2,0-4.2.9-5.6,2.4-1.5,1.4-2.4,3.4-2.4,5.6,0,4.3,3.5,7.9,7.9,7.9s4.2-.9,5.6-2.4c1.5-1.4,2.4-3.4,2.4-5.6,0-4.3-3.5-7.9-7.9-7.9Z"/>
      <path class="st1" d="M167.2,59.7c-2.2,0-4.2.9-5.6,2.4-1.5,1.4-2.4,3.4-2.4,5.6,0,4.3,3.5,7.9,7.9,7.9s4.2-.9,5.6-2.4c1.5-1.4,2.4-3.4,2.4-5.6,0-4.3-3.5-7.9-7.9-7.9Z"/>
      <circle class="st1" cx="141.6" cy="92.7" r="7.9" transform="translate(-24 127.3) rotate(-45)"/>
      <path class="st1" d="M192.3,84.8c-2.2,0-4.2.9-5.6,2.4-1.5,1.4-2.4,3.4-2.4,5.6,0,4.3,3.5,7.9,7.9,7.9s4.2-.9,5.6-2.4c1.5-1.4,2.4-3.4,2.4-5.6,0-4.3-3.5-7.9-7.9-7.9Z"/>
      <circle class="st1" cx="166.7" cy="117.7" r="7.9" transform="translate(-34.4 152.3) rotate(-45)"/>
      <path class="st1" d="M217.4,109.9c-2.2,0-4.2.9-5.6,2.4-1.5,1.4-2.4,3.4-2.4,5.6,0,4.3,3.5,7.9,7.9,7.9s4.2-.9,5.6-2.4c1.5-1.4,2.4-3.4,2.4-5.6,0-4.3-3.5-7.9-7.9-7.9Z"/>
      <circle class="st1" cx="141" cy="142.8" r="7.9" transform="translate(-59.7 141.5) rotate(-45)"/>
      <circle class="st1" cx="191.7" cy="142.8" r="7.9" transform="translate(-44.8 177.4) rotate(-45)"/>
      <path class="st1" d="M242.4,134.9c-2.2,0-4.2.9-5.6,2.4-1.5,1.4-2.4,3.4-2.4,5.6,0,4.3,3.5,7.9,7.9,7.9s4.2-.9,5.6-2.4c1.5-1.4,2.4-3.4,2.4-5.6,0-4.3-3.5-7.9-7.9-7.9Z"/>
      <circle class="st1" cx="166.1" cy="167.8" r="7.9" transform="translate(-70 166.6) rotate(-45)"/>
      <circle class="st1" cx="216.8" cy="167.8" r="7.9" transform="translate(-55.2 202.4) rotate(-45)"/>
      <path class="st1" d="M267.5,160c-2.2,0-4.2.9-5.6,2.4-1.5,1.4-2.4,3.4-2.4,5.6,0,4.3,3.5,7.9,7.9,7.9s4.2-.9,5.6-2.4c1.5-1.4,2.4-3.4,2.4-5.6,0-4.3-3.5-7.9-7.9-7.9Z"/>
      <circle class="st1" cx="140.5" cy="192.9" r="7.9" transform="translate(-40.6 37.4) rotate(-13.3)"/>
      <circle class="st1" cx="191.2" cy="192.9" r="7.9" transform="translate(-39.2 49.1) rotate(-13.3)"/>
      <circle class="st1" cx="241.8" cy="192.9" r="7.9" transform="translate(-37.8 60.7) rotate(-13.3)"/>
      <path class="st1" d="M292.5,185c-2.2,0-4.2.9-5.6,2.4-1.5,1.4-2.4,3.4-2.4,5.6,0,4.3,3.5,7.9,7.9,7.9s4.2-.9,5.6-2.4c1.5-1.4,2.4-3.4,2.4-5.6,0-4.3-3.5-7.9-7.9-7.9Z"/>
      <circle class="st1" cx="114.8" cy="218" r="7.9" transform="translate(-47 32.2) rotate(-13.3)"/>
      <circle class="st1" cx="165.5" cy="218" r="7.9" transform="translate(-45.6 43.9) rotate(-13.3)"/>
      <circle class="st1" cx="216.2" cy="218" r="7.9" transform="translate(-90.8 216.7) rotate(-45)"/>
      <circle class="st1" cx="266.9" cy="218" r="7.9" transform="translate(-75.9 252.6) rotate(-45)"/>
      <path class="st1" d="M325.4,218c0-4.3-3.5-7.9-7.9-7.9s-4.2.9-5.6,2.4c-1.5,1.4-2.4,3.4-2.4,5.6,0,4.3,3.5,7.9,7.9,7.9s4.2-.9,5.6-2.4c1.5-1.4,2.4-3.4,2.4-5.6Z"/>
      <circle class="st1" cx="167.1" cy="17.1" r="7.9" transform="translate(36.9 123.2) rotate(-45)"/>
      <circle class="st1" cx="192.2" cy="42.1" r="7.9" transform="translate(-4.5 45.3) rotate(-13.3)"/>
      <circle class="st1" cx="217.2" cy="16.5" r="7.9" transform="translate(2 50.3) rotate(-13.3)"/>
      <circle class="st1" cx="217.2" cy="67.2" r="7.9" transform="translate(-9.6 51.7) rotate(-13.3)"/>
      <circle class="st1" cx="242.3" cy="41.6" r="7.9" transform="translate(-3.1 56.8) rotate(-13.3)"/>
      <circle class="st1" cx="242.3" cy="92.2" r="7.9" transform="translate(5.7 198.3) rotate(-45)"/>
      <circle class="st1" cx="267.3" cy="15.9" r="7.9" transform="translate(3.5 61.8) rotate(-13.3)"/>
      <circle class="st1" cx="267.3" cy="66.6" r="7.9" transform="translate(31.2 208.5) rotate(-45)"/>
      <circle class="st1" cx="267.3" cy="117.3" r="7.9" transform="translate(-4.6 223.4) rotate(-45)"/>
      <circle class="st1" cx="292.4" cy="41" r="7.9" transform="translate(56.7 218.7) rotate(-45)"/>
      <circle class="st1" cx="292.4" cy="91.7" r="7.9" transform="translate(20.8 233.6) rotate(-45)"/>
      <circle class="st1" cx="292.4" cy="142.4" r="7.9" transform="translate(-24.9 71) rotate(-13.3)"/>
      <circle class="st1" cx="317.4" cy="15.4" r="7.9" transform="translate(149.3 285.1) rotate(-60.8)"/>
      <circle class="st1" cx="317.4" cy="66" r="7.9" transform="translate(46.3 243.8) rotate(-45)"/>
      <circle class="st1" cx="317.4" cy="116.7" r="7.9" transform="translate(-18.3 76.1) rotate(-13.3)"/>
      <circle class="st1" cx="317.4" cy="167.4" r="7.9" transform="translate(-30 77.4) rotate(-13.3)"/>
    </g>
    <rect class="st2" y=".5" width="100" height="232.4"/>
    <path class="st0" d="M9.3,232.9v14.8s43.1-12.1,126-12.7,197.1-2.2,197.1-2.2H9.3Z"/>
  </g>
  <g id="Layer_3">
    <g>
      <path d="M52.5,185.9c-1.8,33.7-37.3,24.9-32.3-5.8,1.1-5.9,4.3-12.6,10.7-14.1,1.5-.2,2.5,0,2.3,1.8,0,6.3,0,21.7,0,25.8.4,2.3,5.5,0,6.9-.7,9.3-4.9,6.9-16.5-.1-22.3-.6-1-.2-2.8,0-4,.1-.8.5-1.8,1.5-1.5,7.2,3.5,10.9,12.9,11.1,20.6v.2ZM29.9,181c-.3-.6-1.5-.4-2.1,0-2.9,1.4-4.3,4.5-4,7.6.2,2.7,2.3,5.2,5,6,.4,0,.8,0,1-.2.5-.6.1-1.5.2-2.4,0-3.1.1-8,0-10.9h0Z"/>
      <path d="M35.5,136.4c1.2-.2,3.8-.5,3.7,1,0,2.4,0,14.4,0,18.6,0,.9,0,1.3-1.2,1.5-1,0-3.2.4-3.3-1,0-2.6,0-12.8,0-16.8,0-.7,0-1.8,0-2.2,0-.4.2-.8.6-1h.1Z"/>
      <path d="M43.5,123.2c.8-1.5,2.8-2.3,3.6-3.9,1.6-2.6,1.8-6.7,0-9.4-1.9-2.5-5.1-.5-6.2,1.8-3.3,5.8-4.1,17.3-12.5,17.8-8.3-.9-9.1-11.7-8.6-18.3.3-3.4,2-10,5.6-11,1.1.3,1.3,2.5,1.8,4.2,0,.5.2,1,0,1.5-.3,1.1-1.5,1.7-2.2,2.6-2,2.4-1.9,6.2-.5,8.8,2.1,3.1,5.1-.3,6-2.6,2.8-5.9,3.5-14.2,9.9-17.5,11.2-2.8,12.5,12.6,11.6,20.4-.4,3.9-2,8.1-5.1,10.8-.6.4-1.3,1-2,.7-.7-.4-1.1-2.3-1.6-3.8-.1-.6-.3-1.2-.2-1.8h0Z"/>
      <path d="M9.3,90.6c-6.1-.7-6.1-13.1,0-13.6,6.2.5,6.1,12.9,0,13.6h-.2ZM23.1,89.6c-1-1.7-2.5-6-3.2-8-.2-.9-.6-3.9.7-4.2,7.6,0,24.4,0,29.3,0,.9,0,1.6-.1,1.8,1.2,0,2.2,0,5.6,0,8,.1,3.7-.2,3.6-3.2,3.5-4.1,0-12.9,0-18.8,0-2.7,0-4.8,0-5.6,0-.4,0-.7,0-1-.4h0Z"/>
      <path d="M20.5,25.2c3.7-.9,4.5,4,5.8,5.1.4.3,1.1.1,1.9-.1,7.2-3.1,12,4.8,13.1,11,1.2,4.8,1,9.9.8,14.7.1,1.3,1.5,2.5,2.7,2,1.4-.9,1.2-3.8,1.4-5.5.3-4.1.4-7.5.5-11.7.3-5.2,0-11.1,3.7-15.1,2.9-2.8,7.7-1,9.9,1.9,4.2,5.5,5.2,12.6,5.7,19.4.3,7,.1,13.9-1.6,20.5-2.6,9.3-7.5,8.1-11.8.6-1.3-2.1-2.3-1.3-3.3.5-1.5,2.5-4.1,1.4-5.8-.9-1.1-1.1-1.5-3.3-3-3.8-1.3.2-1.7,2.2-2.4,3.1-2,3.4-6.5,4.8-10.1,3-6.2-3.3-7.9-11.2-8.3-17.7-.2-4.6.3-9,1.7-13.1.6-1.5,1.1-2.5,1-4.3,0-2.4-3-6.1-3-7.9,0-.9.2-1.4.8-1.6h.1ZM39.8,49.4c-1.2-11.6-18.1-7.7-16.8,2.8,1.7,8.8,17.1,5.8,16.8-2.6v-.2ZM52.4,40.4c0,4.4-.1,8.9-.3,13.3,0,3.7-1.6,7.2,3.4,8.4,6,.6,6.1-12.5,5.9-16.7-.3-4.3-.8-9.2-3.5-12.7-1.7-2.1-3.8-.7-4.6,1.6-.7,1.8-.8,3.8-.8,5.9v.2Z"/>
      <path d="M73.1,155.6v-1.5c0-.7.6-1.3,1.3-1.3h4.5c.7,0,1.3-.6,1.3-1.3v-6.9c0-.7-.6-1.3-1.3-1.3h-4.5c-.7,0-1.3-.6-1.3-1.3v-1.5c0-.7.6-1.3,1.3-1.3h15c.7,0,1.3.6,1.3,1.3v1.5c0,.7-.6,1.3-1.3,1.3h-5.2c-.7,0-1.3.6-1.3,1.3v6.9c0,.7.6,1.3,1.3,1.3h5.2c.7,0,1.3.6,1.3,1.3v1.5c0,.7-.6,1.3-1.3,1.3h-15c-.7,0-1.3-.6-1.3-1.3Z"/>
      <path d="M73.1,131.9v-11.5c0-.7.6-1.3,1.3-1.3h0c.7,0,1.3.6,1.3,1.3v7.3c0,.7.6,1.3,1.3,1.3h1.9c.7,0,1.3-.6,1.3-1.3v-5.8c0-.7.6-1.3,1.3-1.3h0c.7,0,1.3.6,1.3,1.3v5.8c0,.7.6,1.3,1.3,1.3h2.6c.7,0,1.3-.6,1.3-1.3v-7.7c0-.7.6-1.3,1.3-1.3h0c.7,0,1.3.6,1.3,1.3v11.8c0,.7-.6,1.3-1.3,1.3h-15c-.7,0-1.3-.6-1.3-1.3Z"/>
      <path d="M90.3,101.5l-5.8,4.3c-.3.2-.5.6-.5,1.1v1.6c0,.7.6,1.3,1.3,1.3h4.3c.7,0,1.3.6,1.3,1.3v1.5c0,.7-.6,1.3-1.3,1.3h-15c-.7,0-1.3-.6-1.3-1.3v-6.6c0-4.9,1.3-8.6,5.2-8.6s3.6,1.2,4.5,3.1,1.3,1,2,.5l3.8-2.9c.9-.7,2.1,0,2.1,1v1.3c0,.4-.2.8-.5,1.1ZM80.1,109.8c.7,0,1.3-.6,1.3-1.3v-2c0-3.2-1-4.9-3-4.9s-2.7,1.8-2.7,4.9v2c0,.7.6,1.3,1.3,1.3h3.1Z"/>
      <path d="M73.1,91.2v-11.5c0-.7.6-1.3,1.3-1.3h0c.7,0,1.3.6,1.3,1.3v7.3c0,.7.6,1.3,1.3,1.3h1.9c.7,0,1.3-.6,1.3-1.3v-5.8c0-.7.6-1.3,1.3-1.3h0c.7,0,1.3.6,1.3,1.3v5.8c0,.7.6,1.3,1.3,1.3h2.6c.7,0,1.3-.6,1.3-1.3v-7.7c0-.7.6-1.3,1.3-1.3h0c.7,0,1.3.6,1.3,1.3v11.8c0,.7-.6,1.3-1.3,1.3h-15c-.7,0-1.3-.6-1.3-1.3Z"/>
    </g>
  </g>
  <g id="Layer_2">
    <path class="st3" d="M318.1,112.7s-50.1-21.5-65-31.7c-16.8-11.5-60-55.1-60-55.1-3.5-2.4-7.9.6-7.9,5.5v20.5c0,3.1-2.5,5.6-5.6,5.6h-49.1c-4.3,0-7.8,4.2-7.8,9.4v103.6c0,5.2,3.5,9.4,7.8,9.4h49.1c3.1,0,5.6,2.5,5.6,5.6v17.8c0,4.8,4.4,7.9,7.9,5.5,0,0,43.5-43.8,60.5-55.3,14.9-10.1,64.6-31.5,64.6-31.5,3.2-2.2,3.2-7,0-9.2Z"/>
  </g>
</svg>